<?xml version="1.0" encoding="UTF-8"?>
<svg width="122px" height="122px" viewBox="0 0 122 122" version="1.1" xmlns="http://www.w3.org/2000/svg" xmlns:xlink="http://www.w3.org/1999/xlink">
    <!-- Generator: Sketch 53.2 (72643) - https://sketchapp.com -->
    <title>quill</title>
    <desc>Created with Sketch.</desc>
    <defs>
        <filter x="-22.5%" y="-22.5%" width="145.1%" height="145.1%" filterUnits="objectBoundingBox" id="filter-1">
            <feOffset dx="0" dy="2" in="SourceAlpha" result="shadowOffsetOuter1"></feOffset>
            <feGaussianBlur stdDeviation="5" in="shadowOffsetOuter1" result="shadowBlurOuter1"></feGaussianBlur>
            <feColorMatrix values="0 0 0 0 0   0 0 0 0 0   0 0 0 0 0  0 0 0 0.2 0" type="matrix" in="shadowBlurOuter1" result="shadowMatrixOuter1"></feColorMatrix>
            <feMerge>
                <feMergeNode in="shadowMatrixOuter1"></feMergeNode>
                <feMergeNode in="SourceGraphic"></feMergeNode>
            </feMerge>
        </filter>
    </defs>
    <g id="Design" stroke="none" stroke-width="1" fill="none" fill-rule="evenodd">
        <g id="dashboard-dermatologist" transform="translate(-325.000000, -887.000000)" fill-rule="nonzero">
            <g id="Group-37" transform="translate(285.000000, 800.000000)">
                <g id="Group-33" transform="translate(50.000000, 95.000000)">
                    <g id="quill" filter="url(#filter-1)">
                        <circle id="Oval" fill="#FF6838" cx="51" cy="51" r="51"></circle>
                        <path d="M102,51 C102,49.8903516 101.960555,48.7902656 101.890629,47.6983477 L78.0768164,23.8845352 L27.6890156,62.5427344 L20.9914805,76.8412617 L45.8966133,101.746395 C47.5752305,101.91334 49.2775547,102 51,102 C79.166543,102 102,79.166543 102,51 Z" id="Path" fill="#AE4E32"></path>
                        <rect id="Rectangle" fill="#333333" x="22.7826562" y="73.5455859" width="57.0582422" height="3.38671875"></rect>
                        <rect id="Rectangle" fill="#1A1A1A" x="50.9900391" y="73.5455859" width="28.8508594" height="3.38671875"></rect>
                        <path d="M24.2831719,69.1057969 C24.2831719,69.1057969 32.8418086,35.0905898 65.8694883,25.5444258 C98.897168,15.9982617 55.8844453,42.0032813 55.8844453,42.0032813 C55.8844453,42.0032813 65.0192227,38.3822813 65.9244727,41.8387266 C67.2460898,46.8849375 50.8645312,49.4098359 26.2584258,69.6542461 L24.2831719,69.1057969 Z" id="Path" fill="#FFFFFF"></path>
                        <path d="M65.8694883,25.5444258 C60.2204414,27.1772227 55.2875859,29.5262109 50.9904375,32.2979414 L50.9904375,52.7073047 C61.0454063,47.0218008 66.7235391,44.8907578 65.9242734,41.8387266 C65.0190234,38.3822812 55.8842461,42.0032813 55.8842461,42.0032813 C55.8842461,42.0032813 98.8969687,15.9982617 65.8694883,25.5444258 Z" id="Path" fill="#E0E0E0"></path>
                        <polygon id="Path" fill="#FFD863" points="24.2831719 69.1057969 20.9914805 76.8414609 23.0763047 77.4448945 26.2584258 69.6544453"></polygon>
                    </g>
                </g>
            </g>
        </g>
    </g>
</svg>