<?xml version="1.0" encoding="UTF-8"?>
<svg width="30px" height="24px" viewBox="0 0 30 24" version="1.1" xmlns="http://www.w3.org/2000/svg" xmlns:xlink="http://www.w3.org/1999/xlink">
    <!-- Generator: Sketch 53.2 (72643) - https://sketchapp.com -->
    <title>t</title>
    <desc>Created with Sketch.</desc>
    <g id="Design" stroke="none" stroke-width="1" fill="none" fill-rule="evenodd">
        <g id="dashboard-dermatologist" transform="translate(-1008.000000, -1370.000000)" fill="#000000" fill-rule="nonzero">
            <g id="Group-29" transform="translate(978.000000, 1121.000000)">
                <g id="Group-31-Copy" transform="translate(30.000000, 245.000000)">
                    <path d="M7.49998212,13.0000286 C11.3015172,13.0000286 14.4140281,15.7422096 14.9999642,19.3140852 C15.037455,19.5390755 14.8452863,19.7500125 14.6109118,19.7500125 L0.393767372,19.7500125 C0.159392931,19.7500125 -0.032821577,19.5390755 0.00466917832,19.3140852 C0.585936103,15.7422096 3.69844699,13.0000286 7.49998212,13.0000286 Z M14.6061969,21.2500089 C14.8405713,21.2500089 15.0327858,21.4609459 14.9952951,21.6859362 C14.4140281,25.2578119 11.3015172,27.9999928 7.49998212,27.9999928 C3.69844699,27.9999928 0.585936103,25.2578119 0.00466917832,21.6859362 C-0.032821577,21.4609459 0.159392931,21.2500089 0.393767372,21.2500089 L14.6061969,21.2500089 Z M27.815577,6.18440155 C30.4640082,8.83283274 30.6936677,12.9437696 28.5608603,15.8828342 C28.4296197,16.0703338 28.1483704,16.0843871 27.9843083,15.920325 L18.0796535,6.01100108 C17.9155914,5.85160815 17.9296448,5.57035882 18.1171443,5.43440334 C21.056209,3.30631088 25.1671458,3.53597036 27.815577,6.18440155 Z M17.0155844,7.07973938 L26.9202392,16.9843941 C27.0843013,17.143787 27.070248,17.4250364 26.8827484,17.5609461 C23.9436838,19.6937535 19.8327469,19.464094 17.1843157,16.8156628 C14.5405995,14.1672316 14.3108942,10.0562948 16.4390325,7.11723014 C16.570273,6.92973058 16.8515223,6.91567727 17.0155844,7.07973938 Z" id="t"></path>
                </g>
            </g>
        </g>
    </g>
</svg>