<?xml version="1.0" encoding="UTF-8"?>
<svg width="122px" height="122px" viewBox="0 0 122 122" version="1.1" xmlns="http://www.w3.org/2000/svg" xmlns:xlink="http://www.w3.org/1999/xlink">
    <!-- Generator: Sketch 53.2 (72643) - https://sketchapp.com -->
    <title>paper</title>
    <desc>Created with Sketch.</desc>
    <defs>
        <filter x="-22.5%" y="-22.5%" width="145.1%" height="145.1%" filterUnits="objectBoundingBox" id="filter-1">
            <feOffset dx="0" dy="2" in="SourceAlpha" result="shadowOffsetOuter1"></feOffset>
            <feGaussianBlur stdDeviation="5" in="shadowOffsetOuter1" result="shadowBlurOuter1"></feGaussianBlur>
            <feColorMatrix values="0 0 0 0 0   0 0 0 0 0   0 0 0 0 0  0 0 0 0.2 0" type="matrix" in="shadowBlurOuter1" result="shadowMatrixOuter1"></feColorMatrix>
            <feMerge>
                <feMergeNode in="shadowMatrixOuter1"></feMergeNode>
                <feMergeNode in="SourceGraphic"></feMergeNode>
            </feMerge>
        </filter>
    </defs>
    <g id="Design" stroke="none" stroke-width="1" fill="none" fill-rule="evenodd">
        <g id="dashboard-dermatologist" transform="translate(-729.000000, -887.000000)" fill-rule="nonzero">
            <g id="Group-37" transform="translate(285.000000, 800.000000)">
                <g id="Group-35" transform="translate(454.000000, 95.000000)">
                    <g id="paper" filter="url(#filter-1)">
                        <circle id="Oval" fill="#FF6838" cx="51" cy="51" r="51"></circle>
                        <path d="M102,51 C102,48.2097422 101.772492,45.472875 101.341184,42.8041406 L74.7070312,16.1699883 L21.9973359,76.7643633 L47.0849531,101.85198 C48.3770859,101.949996 49.6827656,102 51,102 C79.166543,102 102,79.166543 102,51 Z" id="Path" fill="#AE4E32"></path>
                        <path d="M68.7802734,78.5917969 L27.2929688,78.5917969 L27.2929688,16.1699883 L74.7070312,16.1699883 L74.7070312,72.6650391 C74.7070312,75.9382031 72.0534375,78.5917969 68.7802734,78.5917969 Z" id="Path" fill="#FFFFFF"></path>
                        <g id="Group" transform="translate(20.320312, 16.136719)" fill="#E0E0E0">
                            <path d="M30.5515898,0.0332695313 L30.5515898,62.4550781 L48.4599609,62.4550781 C51.733125,62.4550781 54.3867188,59.8014844 54.3867188,56.5283203 L54.3867188,0.0332695313 L30.5515898,0.0332695313 Z" id="Path"></path>
                            <path d="M48.4101562,50.5019531 C45.1093008,50.5019531 42.4335938,53.1776602 42.4335938,56.4785156 C42.4335938,59.7793711 45.1093008,62.4550781 48.4101562,62.4550781 L5.9765625,62.4550781 C2.67570703,62.4550781 0,59.7793711 0,56.4785156 C0,53.1776602 2.67570703,50.5019531 5.9765625,50.5019531 L48.4101562,50.5019531 Z" id="Path"></path>
                        </g>
                        <path d="M62.7539062,72.6152344 C62.7539062,69.3143789 65.4296133,66.6386719 68.7304688,66.6386719 L50.8719023,66.6386719 L50.8719023,78.5917969 L68.7304688,78.5917969 C65.4296133,78.5917969 62.7539062,75.9160898 62.7539062,72.6152344 Z" id="Path" fill="#C0C0C0"></path>
                        <rect id="Rectangle" fill="#CCCCCC" x="32.5383984" y="22.7766797" width="36.9212109" height="2.82233203"></rect>
                        <rect id="Rectangle" fill="#B3B3B3" x="50.8725" y="22.7766797" width="18.5891016" height="2.82233203"></rect>
                        <rect id="Rectangle" fill="#CCCCCC" x="32.5383984" y="29.6377734" width="36.9212109" height="2.82233203"></rect>
                        <rect id="Rectangle" fill="#B3B3B3" x="50.8725" y="29.6377734" width="18.5891016" height="2.82233203"></rect>
                        <rect id="Rectangle" fill="#CCCCCC" x="32.5383984" y="36.496875" width="36.9212109" height="2.82233203"></rect>
                        <rect id="Rectangle" fill="#B3B3B3" x="50.8725" y="36.496875" width="18.5891016" height="2.82233203"></rect>
                        <rect id="Rectangle" fill="#CCCCCC" x="32.5383984" y="43.3559766" width="36.9212109" height="2.82233203"></rect>
                        <rect id="Rectangle" fill="#B3B3B3" x="50.8725" y="43.3559766" width="18.5891016" height="2.82233203"></rect>
                        <rect id="Rectangle" fill="#CCCCCC" x="32.5383984" y="50.2170703" width="36.9212109" height="2.82233203"></rect>
                        <rect id="Rectangle" fill="#B3B3B3" x="50.8725" y="50.2170703" width="18.5891016" height="2.82233203"></rect>
                        <rect id="Rectangle" fill="#CCCCCC" x="32.5383984" y="57.0761719" width="36.9212109" height="2.82233203"></rect>
                        <rect id="Rectangle" fill="#B3B3B3" x="50.8725" y="57.0761719" width="18.5891016" height="2.82233203"></rect>
                    </g>
                </g>
            </g>
        </g>
    </g>
</svg>