<?xml version="1.0" encoding="UTF-8"?>
<svg width="21px" height="16px" viewBox="0 0 21 16" version="1.1" xmlns="http://www.w3.org/2000/svg" xmlns:xlink="http://www.w3.org/1999/xlink">
    <!-- Generator: Sketch 53.2 (72643) - https://sketchapp.com -->
    <title>Line 2</title>
    <desc>Created with Sketch.</desc>
    <g id="Design" stroke="none" stroke-width="1" fill="none" fill-rule="evenodd">
        <g id="dashboard-dermatologist" transform="translate(-694.000000, -222.000000)" fill="#000000" fill-rule="nonzero">
            <g id="Group-27" transform="translate(285.000000, 130.000000)">
                <g id="Group-26" transform="translate(0.000000, 65.000000)">
                    <g id="Group-14" transform="translate(410.000000, 23.000000)">
                        <path id="Line-2" d="M4.06750664,13 L12.7402612,17.8784245 C13.2216191,18.1491883 13.3923393,18.7589034 13.1215755,19.2402612 C12.8508117,19.7216191 12.2410966,19.8923393 11.7597388,19.6215755 L-0.24026124,12.8715755 C-0.91991292,12.4892715 -0.91991292,11.5107285 -0.24026124,11.1284245 L11.7597388,4.37842446 C12.2410966,4.10766066 12.8508117,4.27838088 13.1215755,4.75973876 C13.3923393,5.24109664 13.2216191,5.85081173 12.7402612,6.12157554 L4.06750664,11 L12.25,11 L19.0154826,11 C19.5677674,11 20.0154826,11.4477153 20.0154826,12 C20.0154826,12.5522847 19.5677674,13 19.0154826,13 L12.25,13 L4.06750664,13 Z"></path>
                    </g>
                </g>
            </g>
        </g>
    </g>
</svg>