<?xml version="1.0" encoding="UTF-8"?>
<svg width="122px" height="122px" viewBox="0 0 122 122" version="1.1" xmlns="http://www.w3.org/2000/svg" xmlns:xlink="http://www.w3.org/1999/xlink">
    <!-- Generator: Sketch 53.2 (72643) - https://sketchapp.com -->
    <title>search</title>
    <desc>Created with Sketch.</desc>
    <defs>
        <filter x="-22.5%" y="-22.5%" width="145.1%" height="145.1%" filterUnits="objectBoundingBox" id="filter-1">
            <feOffset dx="0" dy="2" in="SourceAlpha" result="shadowOffsetOuter1"></feOffset>
            <feGaussianBlur stdDeviation="5" in="shadowOffsetOuter1" result="shadowBlurOuter1"></feGaussianBlur>
            <feColorMatrix values="0 0 0 0 0   0 0 0 0 0   0 0 0 0 0  0 0 0 0.2 0" type="matrix" in="shadowBlurOuter1" result="shadowMatrixOuter1"></feColorMatrix>
            <feMerge>
                <feMergeNode in="shadowMatrixOuter1"></feMergeNode>
                <feMergeNode in="SourceGraphic"></feMergeNode>
            </feMerge>
        </filter>
    </defs>
    <g id="Design" stroke="none" stroke-width="1" fill="none" fill-rule="evenodd">
        <g id="dashboard-dermatologist" transform="translate(-527.000000, -887.000000)" fill-rule="nonzero">
            <g id="Group-37" transform="translate(285.000000, 800.000000)">
                <g id="Group-34" transform="translate(234.000000, 95.000000)">
                    <g id="search" filter="url(#filter-1)" transform="translate(18.000000, 0.000000)">
                        <circle id="Oval" fill="#005C83" cx="51" cy="51" r="51"></circle>
                        <path d="M59.8889414,101.226434 C83.8177031,97.0203281 102,76.1342344 102,51 C102,50.5308398 101.992629,50.0636719 101.980078,49.5975 L74.7952852,22.4129062 L19.1628516,40.5822539 L37.3839961,58.8033984 L19.6377891,60.975082 L59.8889414,101.226434 Z" id="Path" fill="#00263F"></path>
                        <path d="M26.0044219,40.9753125 L72.6040781,40.9753125 L72.6040781,24.6043125 L26.0044219,24.6043125 C21.48375,24.6043125 17.8189219,28.2691406 17.8189219,32.7898125 L17.8189219,32.7898125 C17.8187227,37.3104844 21.4835508,40.9753125 26.0044219,40.9753125 Z" id="Path" fill="#FFECB3"></path>
                        <rect id="Rectangle" fill="#FFD863" x="50.9900391" y="24.6035156" width="21.6132422" height="16.3717969"></rect>
                        <path d="M74.7952852,43.1667188 L26.0042227,43.1667188 C20.2822617,43.1667188 15.6273164,38.5115742 15.6273164,32.7898125 C15.6273164,27.0678516 20.2822617,22.4129063 26.0042227,22.4129063 L74.7952852,22.4129063 L74.7952852,26.7957188 L26.0042227,26.7957188 C22.6989844,26.7957188 20.0101289,29.4847734 20.0101289,32.7898125 C20.0101289,36.0950508 22.6989844,38.7839063 26.0042227,38.7839063 L74.7952852,38.7839063 L74.7952852,43.1667188 Z" id="Path" fill="#FF6838"></path>
                        <g id="Group" transform="translate(50.800781, 22.312500)" fill="#AE4E32">
                            <rect id="Rectangle" x="0.189257812" y="16.4714063" width="23.8046484" height="4.3828125"></rect>
                            <rect id="Rectangle" x="0.189257812" y="0.099609375" width="23.8046484" height="4.3828125"></rect>
                        </g>
                        <path d="M26.0044219,60.9752813 L72.6040781,60.9752813 L72.6040781,44.6042813 L26.0044219,44.6042813 C21.48375,44.6042813 17.8189219,48.2691094 17.8189219,52.7897813 L17.8189219,52.7897813 C17.8187227,57.3104531 21.4835508,60.9752813 26.0044219,60.9752813 Z" id="Path" fill="#FFECB3"></path>
                        <rect id="Rectangle" fill="#FFD863" x="50.9900391" y="44.6050781" width="21.6132422" height="16.3717969"></rect>
                        <g id="Group" transform="translate(15.539062, 42.234375)" fill="#35CCFF">
                            <path d="M59.2562227,20.9323125 L10.4651602,20.9323125 C4.74319922,20.9323125 0.0882539063,16.277168 0.0882539063,10.5554062 C0.0882539063,4.83344531 4.74319922,0.1785 10.4651602,0.1785 L59.2562227,0.1785 L59.2562227,4.5613125 L10.4651602,4.5613125 C7.15992187,4.5613125 4.47106641,7.25036719 4.47106641,10.5554062 C4.47106641,13.8606445 7.15992188,16.5495 10.4651602,16.5495 L59.2562227,16.5495 L59.2562227,20.9323125 Z" id="Path"></path>
                            <rect id="Rectangle" x="35.4509766" y="16.5491016" width="23.8046484" height="4.3828125"></rect>
                            <rect id="Rectangle" x="35.4509766" y="0.179296875" width="23.8046484" height="4.3828125"></rect>
                        </g>
                        <polygon id="Rectangle" fill="#FF6838" transform="translate(63.584869, 75.189790) rotate(-135.000000) translate(-63.584869, -75.189790) " points="52.3810136 70.4085854 74.7887245 70.4085854 74.7887245 79.9709937 52.3810136 79.9709937"></polygon>
                        <polygon id="Rectangle" fill="#AE4E32" transform="translate(65.095464, 73.677126) rotate(-135.000000) translate(-65.095464, -73.677126) " points="53.891609 71.0324233 76.2993199 71.0324233 76.2993199 76.3218296 53.891609 76.3218296"></polygon>
                        <circle id="Oval" fill="#FFFFFF" cx="44.6608594" cy="57.3232031" r="14.85375"></circle>
                        <path d="M59.5158047,57.3226055 C59.5158047,49.1185781 52.8650859,42.4680586 44.6612578,42.4680586 C40.6454063,42.4680586 37.0042852,44.0643984 34.3305703,46.6538438 L55.3300195,67.653293 C57.9194648,64.9795781 59.5158047,61.338457 59.5158047,57.3226055 Z" id="Path" fill="#E0E0E0"></path>
                        <path d="M44.6612578,75.5638711 C34.6029023,75.5638711 26.4199922,67.3807617 26.4199922,57.3226055 C26.4199922,47.2644492 34.6029023,39.0813398 44.6612578,39.0813398 C54.7196133,39.0813398 62.9025234,47.26425 62.9025234,57.3226055 C62.9025234,67.3809609 54.7196133,75.5638711 44.6612578,75.5638711 Z M44.6612578,45.8545781 C38.3378555,45.8545781 33.1934297,50.9990039 33.1934297,57.3224062 C33.1934297,63.6458086 38.3378555,68.7902344 44.6612578,68.7902344 C50.9846602,68.7902344 56.1290859,63.6458086 56.1290859,57.3224062 C56.1290859,50.9992031 50.9846602,45.8545781 44.6612578,45.8545781 Z" id="Shape" fill="#FFCF35"></path>
                        <path d="M44.6612578,45.8545781 C50.9846602,45.8545781 56.1290859,50.9990039 56.1290859,57.3224063 C56.1290859,60.3983438 54.9094687,63.1929844 52.9314258,65.2545 L57.7208438,70.043918 C60.9250781,66.7552148 62.9025234,62.2658203 62.9025234,57.3224063 C62.9025234,47.2640508 54.7196133,39.0811406 44.6612578,39.0811406 C39.7178438,39.0811406 35.2284492,41.0585859 31.9399453,44.2628203 L36.7293633,49.0522383 C38.7906797,47.0741953 41.5853203,45.8545781 44.6612578,45.8545781 Z" id="Path" fill="#FFB344"></path>
                    </g>
                </g>
            </g>
        </g>
    </g>
</svg>