<?xml version="1.0" encoding="UTF-8"?>
<svg width="45px" height="51px" viewBox="0 0 45 51" version="1.1" xmlns="http://www.w3.org/2000/svg" xmlns:xlink="http://www.w3.org/1999/xlink">
    <!-- Generator: Sketch 53.2 (72643) - https://sketchapp.com -->
    <title>pdf</title>
    <desc>Created with Sketch.</desc>
    <g id="Design" stroke="none" stroke-width="1" fill="none" fill-rule="evenodd">
        <g id="dashboard-plastic-surgeon" transform="translate(-1240.000000, -1031.000000)" fill-rule="nonzero">
            <g id="Group-53" transform="translate(285.000000, 800.000000)">
                <g id="Group-50" transform="translate(254.000000, 150.000000)">
                    <g id="Group-49" transform="translate(524.000000, 71.000000)">
                        <g id="Group-48" transform="translate(0.000000, 0.000000)">
                            <g id="pdf" transform="translate(177.000000, 10.000000)">
                                <path d="M9.64285714,0 C7.875,0 6.42857143,1.434375 6.42857143,3.1875 L6.42857143,47.8125 C6.42857143,49.565625 7.875,51 9.64285714,51 L41.7857143,51 C43.5535714,51 45,49.565625 45,47.8125 L45,12.75 L32.1428571,0 L9.64285714,0 Z" id="Path" fill="#E2E5E7"></path>
                                <path d="M35.3571429,12.75 L45,12.75 L32.1428571,0 L32.1428571,9.5625 C32.1428571,11.315625 33.5892857,12.75 35.3571429,12.75 Z" id="Path" fill="#B0B7BD"></path>
                                <polygon id="Path" fill="#CAD1D8" points="45 22.3125 35.3571429 12.75 45 12.75"></polygon>
                                <path d="M38.5714286,41.4375 C38.5714286,42.3140625 37.8482143,43.03125 36.9642857,43.03125 L1.60714286,43.03125 C0.723214286,43.03125 0,42.3140625 0,41.4375 L0,25.5 C0,24.6234375 0.723214286,23.90625 1.60714286,23.90625 L36.9642857,23.90625 C37.8482143,23.90625 38.5714286,24.6234375 38.5714286,25.5 L38.5714286,41.4375 Z" id="Path" fill="#F15642"></path>
                                <g id="Group" transform="translate(6.930804, 29.285156)" fill="#FFFFFF">
                                    <path d="M0.0747321429,0.911625 C0.0747321429,0.490875 0.409017857,0.031875 0.947410714,0.031875 L3.91580357,0.031875 C5.58723214,0.031875 7.09151786,1.141125 7.09151786,3.2671875 C7.09151786,5.2816875 5.58723214,6.4036875 3.91580357,6.4036875 L1.77026786,6.4036875 L1.77026786,8.0866875 C1.77026786,8.6476875 1.41026786,8.96484375 0.947410714,8.96484375 C0.523125,8.96484375 0.0747321429,8.6476875 0.0747321429,8.0866875 L0.0747321429,0.911625 L0.0747321429,0.911625 Z M1.77026786,1.63678125 L1.77026786,4.81153125 L3.91580357,4.81153125 C4.77723214,4.81153125 5.45866071,4.0576875 5.45866071,3.2671875 C5.45866071,2.37628125 4.77723214,1.63678125 3.91580357,1.63678125 L1.77026786,1.63678125 Z" id="Shape"></path>
                                    <path d="M9.60830357,8.96484375 C9.18401786,8.96484375 8.72116071,8.73534375 8.72116071,8.1759375 L8.72116071,0.937125 C8.72116071,0.47971875 9.18401786,0.146625 9.60830357,0.146625 L12.5509821,0.146625 C18.4234821,0.146625 18.2949107,8.96484375 12.6666964,8.96484375 L9.60830357,8.96484375 L9.60830357,8.96484375 Z M10.4183036,1.702125 L10.4183036,7.4109375 L12.5509821,7.4109375 C16.0208036,7.4109375 16.1750893,1.702125 12.5509821,1.702125 L10.4183036,1.702125 L10.4183036,1.702125 Z" id="Shape"></path>
                                    <path d="M20.3777679,1.804125 L20.3777679,3.82978125 L23.6547321,3.82978125 C24.1175893,3.82978125 24.5804464,4.28878125 24.5804464,4.7334375 C24.5804464,5.1541875 24.1175893,5.4984375 23.6547321,5.4984375 L20.3777679,5.4984375 L20.3777679,8.17434375 C20.3777679,8.62059375 20.0579464,8.96325 19.6079464,8.96325 C19.0422321,8.96325 18.6966964,8.62059375 18.6966964,8.17434375 L18.6966964,0.93553125 C18.6966964,0.478125 19.0438393,0.14503125 19.6079464,0.14503125 L24.1191964,0.14503125 C24.6849107,0.14503125 25.0191964,0.478125 25.0191964,0.93553125 C25.0191964,1.34353125 24.6849107,1.80253125 24.1191964,1.80253125 L20.3777679,1.80253125 L20.3777679,1.804125 Z" id="Path"></path>
                                </g>
                                <path d="M36.9642857,43.03125 L6.42857143,43.03125 L6.42857143,44.625 L36.9642857,44.625 C37.8482143,44.625 38.5714286,43.9078125 38.5714286,43.03125 L38.5714286,41.4375 C38.5714286,42.3140625 37.8482143,43.03125 36.9642857,43.03125 Z" id="Path" fill="#CAD1D8"></path>
                            </g>
                        </g>
                    </g>
                </g>
            </g>
        </g>
    </g>
</svg>