<?xml version="1.0" encoding="UTF-8"?>
<svg width="157px" height="128px" viewBox="0 0 157 128" version="1.1" xmlns="http://www.w3.org/2000/svg" xmlns:xlink="http://www.w3.org/1999/xlink">
    <!-- Generator: Sketch 53.2 (72643) - https://sketchapp.com -->
    <title>Group 32</title>
    <desc>Created with Sketch.</desc>
    <g id="Design" stroke="none" stroke-width="1" fill="none" fill-rule="evenodd" stroke-linecap="round" stroke-linejoin="round">
        <g id="dashboard-plastic-surgeon" transform="translate(-419.000000, -1907.000000)" stroke="#3B86FD" stroke-width="12">
            <g id="Group-40" transform="translate(285.000000, 1758.000000)">
                <g id="Group-34" transform="translate(140.000000, 155.000000)">
                    <g id="Group-33">
                        <g id="Group-32">
                            <path d="M130.731992,115.69657 C139.69628,103.631898 145,88.6853238 145,72.5 C145,32.4593556 112.540644,3.55271368e-14 72.5,3.55271368e-14 C32.4593556,3.55271368e-14 1.42108547e-14,32.4593556 1.42108547e-14,72.5 C1.42108547e-14,88.7713208 5.36022959,103.790693 14.4112062,115.888634" id="Oval" stroke-opacity="0.1"></path>
                            <path d="M124.120012,21.5919854 C110.973041,8.2622969 92.7014019,3.55271368e-14 72.5,3.55271368e-14 C32.4593556,3.55271368e-14 2.13162821e-14,32.4593556 2.13162821e-14,72.5 C2.13162821e-14,88.7713208 5.36022959,103.790693 14.4112062,115.888634" id="Oval"></path>
                        </g>
                    </g>
                </g>
            </g>
        </g>
    </g>
</svg>