<?xml version="1.0" encoding="UTF-8"?>
<svg width="21px" height="16px" viewBox="0 0 21 16" version="1.1" xmlns="http://www.w3.org/2000/svg" xmlns:xlink="http://www.w3.org/1999/xlink">
    <!-- Generator: Sketch 53.2 (72643) - https://sketchapp.com -->
    <title>Line 2</title>
    <desc>Created with Sketch.</desc>
    <g id="Design" stroke="none" stroke-width="1" fill="none" fill-rule="evenodd">
        <g id="dashboard-dermatologist" transform="translate(-694.000000, -222.000000)" fill="#000000" fill-rule="nonzero">
            <g id="Group-27" transform="translate(285.000000, 130.000000)">
                <g id="Group-26" transform="translate(0.000000, 65.000000)">
                    <g id="Group-14" transform="translate(410.000000, 23.000000)">
                        <path id="Line-2" d="M15.947976,11 L7.27522139,6.12157554 C6.79386351,5.85081173 6.62314329,5.24109664 6.89390709,4.75973876 C7.1646709,4.27838088 7.77438599,4.10766066 8.25574387,4.37842446 L20.2557439,11.1284245 C20.9353955,11.5107285 20.9353955,12.4892715 20.2557439,12.8715755 L8.25574387,19.6215755 C7.77438599,19.8923393 7.1646709,19.7216191 6.89390709,19.2402612 C6.62314329,18.7589034 6.79386351,18.1491883 7.27522139,17.8784245 L15.947976,13 L7.76548263,13 L1,13 C0.44771525,13 -2.13162821e-14,12.5522847 -2.13162821e-14,12 C-2.13162821e-14,11.4477153 0.44771525,11 1,11 L7.76548263,11 L15.947976,11 Z"></path>
                    </g>
                </g>
            </g>
        </g>
    </g>
</svg>